<svg xmlns="http://www.w3.org/2000/svg" width="392.8461536204319" height="72.84615362043212" style="background: rgba(0, 0, 0, 0);"><rect id="backgroundrect" width="100%" height="100%" x="0" y="0" fill="none" stroke="none" class="selected" style=""/> <defs> <filter id="editing-scratch" x="-100%" y="-100%" width="300%" height="300%"> <feFlood flood-color="#ddd" flood-opacity="0.75" result="COLOR-blu"/> <feFlood flood-color="#666" flood-opacity="0.4" result="COLOR-red"/> <feTurbulence baseFrequency=".05" type="fractalNoise" numOctaves="3" seed="0" result="Texture_10"/> <feColorMatrix type="matrix" values="0 0 0 0 0, 0 0 0 0 0, 0 0 0 0 0, 0 0 0 -2.1 1.1" in="Texture_10" result="Texture_20"/> <feColorMatrix result="Texture_30" type="matrix" values="0 0 0 0 0, 0 0 0 0 0, 0 0 0 0 0, 0 0 0 -1.7 1.8" in="Texture_10"/> <feOffset dx="-3" dy="4" in="SourceAlpha" result="FILL_10"/> <feDisplacementMap scale="17" in="FILL_10" in2="Texture_10" result="FILL_20"/> <feComposite operator="in" in="Texture_30" in2="FILL_20" result="FILL_40"/> <feComposite operator="in" in="COLOR-blu" in2="FILL_40" result="FILL_50"/> <feMorphology operator="dilate" radius="3" in="SourceGraphic" result="OUTLINE_10"/> <feComposite operator="out" in="OUTLINE_10" in2="SourceGraphic" result="OUTLINE_20"/> <feDisplacementMap scale="7" in="OUTLINE_20" in2="Texture_10" result="OUTLINE_30"/> <feComposite operator="arithmetic" k2="-1" k3="1" in="Texture_20" in2="OUTLINE_30" result="OUTLINE_40"/> <feConvolveMatrix order="8,8" divisor="1" kernelMatrix="1 0 0 0 0 0 0 0 0 1 0 0 0 0 0 0 0 0 1 0 0 0 0 0 0 0 0 1 0 0 0 0 0 0 0 0 1 0 0 0 0 0 0 0 0 1 0 0 0 0 0 0 0 0 1 0 0 0 0 0 0 0 0 1 " in="SourceGraphic" result="BEVEL_10"/> <feMorphology operator="dilate" radius="2" in="BEVEL_10" result="BEVEL_20"/> <feComposite operator="out" in="BEVEL_20" in2="BEVEL_10" result="BEVEL_30"/> <feDisplacementMap scale="7" in="BEVEL_30" in2="Texture_10" result="BEVEL_40"/> <feComposite operator="arithmetic" k2="-1" k3="1" in="Texture_20" in2="BEVEL_40" result="BEVEL_50"/> <feOffset dx="-7" dy="-7" in="BEVEL_50" result="BEVEL_60"/> <feComposite operator="out" in="BEVEL_60" in2="OUTLINE_10" result="BEVEL_70"/> <feOffset dx="-9" dy="-9" in="BEVEL_10" result="BEVEL-FILL_10"/> <feComposite operator="out" in="BEVEL-FILL_10" in2="OUTLINE_10" result="BEVEL-FILL_20"/> <feDisplacementMap scale="17" in="BEVEL-FILL_20" in2="Texture_10" result="BEVEL-FILL_30"/> <feComposite operator="in" in="COLOR-red" in2="BEVEL-FILL_30" result="BEVEL-FILL_50"/> <feMerge result="merge2"> <feMergeNode in="BEVEL-FILL_50"/> <feMergeNode in="BEVEL_70"/> <feMergeNode in="FILL_50"/> <feMergeNode in="OUTLINE_40"/> </feMerge> </filter> </defs>  <style>text{font-size: 64px; font-family: Arial Black; dominant-baseline: central; text-anchor: middle;}</style><g class="currentLayer" style=""><title>Layer 1</title><g filter="url(#editing-scratch)" id="svg_1" class=""> <g id="svg_2"> <path d="M14.270376796722417,60.36461503982544 L14.270376796722417,60.36461503982544 L14.270376796722417,60.36461503982544 Q12.77037679672241,58.70461503982544 12.100376796722415,56.074615039825446 L12.100376796722415,56.074615039825446 L12.100376796722415,56.074615039825446 Q11.420376796722415,53.45461503982544 11.420376796722415,49.164615039825435 L11.420376796722415,49.164615039825435 L11.420376796722415,49.164615039825435 Q11.420376796722415,44.87461503982544 12.900376796722412,40.97461503982544 L12.900376796722412,40.97461503982544 L12.900376796722412,40.97461503982544 Q14.370376796722411,37.06461503982544 17.06037679672241,34.25461503982544 L17.06037679672241,34.25461503982544 L17.06037679672241,34.25461503982544 Q22.56037679672241,28.364615039825438 31.650376796722412,28.364615039825438 L31.650376796722412,28.364615039825438 L31.650376796722412,28.364615039825438 Q34.91037679672242,28.364615039825438 37.28037679672241,29.45461503982544 L37.28037679672241,29.45461503982544 L48.220376796722405,28.364615039825438 L43.490376796722416,53.32461503982543 L43.490376796722416,53.32461503982543 Q43.30037679672242,54.09461503982544 43.30037679672242,55.50461503982544 L43.30037679672242,55.50461503982544 L43.30037679672242,55.50461503982544 Q43.30037679672242,56.904615039825444 44.1603767967224,57.804615039825435 L44.1603767967224,57.804615039825435 L44.1603767967224,57.804615039825435 Q45.02037679672242,58.70461503982544 46.30037679672242,58.824615039825446 L46.30037679672242,58.824615039825446 L46.30037679672242,58.824615039825446 Q45.6603767967224,61.00461503982544 43.33037679672242,62.28461503982544 L43.33037679672242,62.28461503982544 L43.33037679672242,62.28461503982544 Q40.990376796722416,63.56461503982544 38.37037679672241,63.56461503982544 L38.37037679672241,63.56461503982544 L38.37037679672241,63.56461503982544 Q35.740376796722416,63.56461503982544 33.98037679672241,62.574615039825446 L33.98037679672241,62.574615039825446 L33.98037679672241,62.574615039825446 Q32.220376796722405,61.58461503982544 31.710376796722414,59.914615039825435 L31.710376796722414,59.914615039825435 L31.710376796722414,59.914615039825435 Q30.690376796722404,61.51461503982544 28.51037679672241,62.544615039825445 L28.51037679672241,62.544615039825445 L28.51037679672241,62.544615039825445 Q26.34037679672241,63.56461503982544 23.420376796722408,63.56461503982544 L23.420376796722408,63.56461503982544 L23.420376796722408,63.56461503982544 Q20.51037679672241,63.56461503982544 18.140376796722407,62.794615039825445 L18.140376796722407,62.794615039825445 L18.140376796722407,62.794615039825445 Q15.780376796722408,62.024615039825434 14.270376796722417,60.36461503982544 zM27.780376796722408,34.384615039825434 L27.780376796722408,34.384615039825434 L27.780376796722408,34.384615039825434 Q27.040376796722413,35.53461503982544 26.400376796722412,37.48461503982544 L26.400376796722412,37.48461503982544 L26.400376796722412,37.48461503982544 Q25.76037679672241,39.434615039825445 24.70037679672241,44.654615039825444 L24.70037679672241,44.654615039825444 L24.70037679672241,44.654615039825444 Q23.650376796722412,49.86461503982544 23.650376796722412,53.58461503982544 L23.650376796722412,53.58461503982544 L23.650376796722412,53.58461503982544 Q23.650376796722412,57.294615039825445 24.220376796722405,58.384615039825434 L24.220376796722405,58.384615039825434 L24.220376796722405,58.384615039825434 Q24.800376796722418,59.464615039825446 25.820376796722414,59.464615039825446 L25.820376796722414,59.464615039825446 L25.820376796722414,59.464615039825446 Q27.87037679672241,59.464615039825446 29.380376796722416,57.51461503982544 L29.380376796722416,57.51461503982544 L29.380376796722416,57.51461503982544 Q30.880376796722416,55.56461503982544 31.460376796722414,52.10461503982543 L31.460376796722414,52.10461503982543 L34.850376796722415,33.35461503982543 L34.850376796722415,33.35461503982543 Q33.500376796722406,32.20461503982544 31.940376796722404,32.20461503982544 L31.940376796722404,32.20461503982544 L31.940376796722404,32.20461503982544 Q30.37037679672241,32.20461503982544 29.440376796722404,32.714615039825446 L29.440376796722404,32.714615039825446 L29.440376796722404,32.714615039825446 Q28.51037679672241,33.22461503982544 27.780376796722408,34.384615039825434 zM50.850376796722415,59.214615039825446 L50.850376796722415,59.214615039825446 L58.78037679672241,17.484615039825442 L71.78037679672241,16.20461503982544 L69.79037679672241,25.994615039825447 L69.79037679672241,25.994615039825447 Q69.09037679672241,29.00461503982544 68.1903767967224,31.114615039825438 L68.1903767967224,31.114615039825438 L68.1903767967224,31.114615039825438 Q69.60037679672241,29.32461503982543 72.67037679672242,28.624615039825443 L72.67037679672242,28.624615039825443 L72.67037679672242,28.624615039825443 Q73.57037679672241,28.364615039825438 74.66037679672242,28.364615039825438 L74.66037679672242,28.364615039825438 L74.66037679672242,28.364615039825438 Q80.61037679672239,28.364615039825438 83.87037679672241,31.984615039825442 L83.87037679672241,31.984615039825442 L83.87037679672241,31.984615039825442 Q87.14037679672242,35.59461503982544 87.14037679672242,42.57461503982543 L87.14037679672242,42.57461503982543 L87.14037679672242,42.57461503982543 Q87.14037679672242,51.664615039825435 81.95037679672242,57.35461503982543 L81.95037679672242,57.35461503982543 L81.95037679672242,57.35461503982543 Q76.38037679672242,63.56461503982544 66.27037679672242,63.56461503982544 L66.27037679672242,63.56461503982544 L66.27037679672242,63.56461503982544 Q59.30037679672242,63.56461503982544 54.05037679672242,61.26461503982544 L54.05037679672242,61.26461503982544 L54.05037679672242,61.26461503982544 Q52.190376796722404,60.42461503982544 50.850376796722415,59.214615039825446 zM67.10037679672241,39.884615039825434 L63.710376796722414,58.634615039825434 L63.710376796722414,58.634615039825434 Q65.06037679672241,59.78461503982544 66.7203767967224,59.78461503982544 L66.7203767967224,59.78461503982544 L66.7203767967224,59.78461503982544 Q68.3803767967224,59.78461503982544 69.34037679672241,59.14461503982544 L69.34037679672241,59.14461503982544 L69.34037679672241,59.14461503982544 Q70.30037679672242,58.50461503982544 71.01037679672241,57.22461503982544 L71.01037679672241,57.22461503982544 L71.01037679672241,57.22461503982544 Q72.93037679672241,53.774615039825434 74.46037679672241,43.214615039825446 L74.46037679672241,43.214615039825446 L74.46037679672241,43.214615039825446 Q74.91037679672242,40.20461503982544 74.91037679672242,37.194615039825436 L74.91037679672242,37.194615039825436 L74.91037679672242,37.194615039825436 Q74.91037679672242,34.184615039825445 74.24037679672242,33.22461503982544 L74.24037679672242,33.22461503982544 L74.24037679672242,33.22461503982544 Q73.57037679672241,32.26461503982544 72.29037679672241,32.26461503982544 L72.29037679672241,32.26461503982544 L72.29037679672241,32.26461503982544 Q68.3803767967224,32.26461503982544 67.10037679672241,39.884615039825434 L67.10037679672241,39.884615039825434 zM104.93037679672241,63.56461503982544 L104.93037679672241,63.56461503982544 L104.93037679672241,63.56461503982544 Q90.8503767967224,63.56461503982544 90.8503767967224,50.31461503982544 L90.8503767967224,50.31461503982544 L90.8503767967224,50.31461503982544 Q90.8503767967224,40.904615039825444 96.03037679672241,34.82461503982543 L96.03037679672241,34.82461503982543 L96.03037679672241,34.82461503982543 Q101.5403767967224,28.364615039825438 111.07037679672243,28.364615039825438 L111.07037679672243,28.364615039825438 L111.07037679672243,28.364615039825438 Q117.9803767967224,28.364615039825438 121.5003767967224,31.56461503982544 L121.5003767967224,31.56461503982544 L121.5003767967224,31.56461503982544 Q125.02037679672242,34.76461503982544 125.02037679672242,41.48461503982544 L125.02037679672242,41.48461503982544 L125.02037679672242,41.48461503982544 Q125.02037679672242,51.72461503982544 119.52037679672242,57.67461503982544 L119.52037679672242,57.67461503982544 L119.52037679672242,57.67461503982544 Q114.14037679672242,63.56461503982544 104.93037679672241,63.56461503982544 zM106.59037679672241,35.72461503982544 L106.59037679672241,35.72461503982544 L106.59037679672241,35.72461503982544 Q105.82037679672243,37.45461503982544 105.2203767967224,40.044615039825445 L105.2203767967224,40.044615039825445 L105.2203767967224,40.044615039825445 Q104.61037679672239,42.634615039825434 103.84037679672241,46.73461503982544 L103.84037679672241,46.73461503982544 L103.84037679672241,46.73461503982544 Q103.07037679672243,50.82461503982543 103.07037679672243,55.884615039825434 L103.07037679672243,55.884615039825434 L103.07037679672243,55.884615039825434 Q103.07037679672243,57.544615039825445 103.62037679672241,58.634615039825434 L103.62037679672241,58.634615039825434 L103.62037679672241,58.634615039825434 Q104.1603767967224,59.72461503982544 105.63037679672243,59.72461503982544 L105.63037679672243,59.72461503982544 L105.63037679672243,59.72461503982544 Q107.1003767967224,59.72461503982544 108.03037679672241,59.024615039825434 L108.03037679672241,59.024615039825434 L108.03037679672241,59.024615039825434 Q108.96037679672241,58.31461503982544 109.6603767967224,56.654615039825444 L109.6603767967224,56.654615039825444 L109.6603767967224,56.654615039825444 Q110.94037679672243,53.70461503982544 111.9703767967224,48.23461503982544 L111.9703767967224,48.23461503982544 L111.9703767967224,48.23461503982544 Q112.99037679672242,42.76461503982544 113.09037679672241,40.39461503982544 L113.09037679672241,40.39461503982544 L113.09037679672241,40.39461503982544 Q113.18037679672241,38.024615039825434 113.18037679672241,36.26461503982544 L113.18037679672241,36.26461503982544 L113.18037679672241,36.26461503982544 Q113.18037679672241,34.50461503982544 112.6703767967224,33.35461503982543 L112.6703767967224,33.35461503982543 L112.6703767967224,33.35461503982543 Q112.1603767967224,32.20461503982544 110.7203767967224,32.20461503982544 L110.7203767967224,32.20461503982544 L110.7203767967224,32.20461503982544 Q109.28037679672241,32.20461503982544 108.32037679672243,33.10461503982543 L108.32037679672243,33.10461503982543 L108.32037679672243,33.10461503982543 Q107.36037679672239,33.99461503982545 106.59037679672241,35.72461503982544 zM149.3403767967224,59.59461503982544 L149.3403767967224,59.59461503982544 L149.3403767967224,59.59461503982544 Q146.27037679672242,63.56461503982544 138.6603767967224,63.56461503982544 L138.6603767967224,63.56461503982544 L138.6603767967224,63.56461503982544 Q134.69037679672243,63.56461503982544 131.8103767967224,61.164615039825435 L131.8103767967224,61.164615039825435 L131.8103767967224,61.164615039825435 Q128.9303767967224,58.76461503982544 128.9303767967224,55.304615039825435 L128.9303767967224,55.304615039825435 L128.9303767967224,55.304615039825435 Q128.9303767967224,53.384615039825434 129.1203767967224,52.42461503982544 L129.1203767967224,52.42461503982544 L133.4103767967224,29.64461503982544 L146.4003767967224,28.364615039825438 L141.73037679672242,53.06461503982544 L141.73037679672242,53.06461503982544 Q141.4703767967224,54.47461503982544 141.4703767967224,55.304615039825435 L141.4703767967224,55.304615039825435 L141.4703767967224,55.304615039825435 Q141.4703767967224,59.024615039825434 143.71037679672241,59.024615039825434 L143.71037679672241,59.024615039825434 L143.71037679672241,59.024615039825434 Q146.21037679672241,59.024615039825434 148.0003767967224,55.62461503982544 L148.0003767967224,55.62461503982544 L148.0003767967224,55.62461503982544 Q148.58037679672242,54.544615039825445 148.83037679672242,53.134615039825434 L148.83037679672242,53.134615039825434 L153.3803767967224,29.64461503982544 L165.98037679672242,28.364615039825438 L161.2503767967224,53.32461503982543 L161.2503767967224,53.32461503982543 Q161.0603767967224,54.28461503982544 161.0603767967224,55.304615039825435 L161.0603767967224,55.304615039825435 L161.0603767967224,55.304615039825435 Q161.0603767967224,56.33461503982544 161.6303767967224,57.45461503982544 L161.6303767967224,57.45461503982544 L161.6303767967224,57.45461503982544 Q162.21037679672241,58.574615039825446 164.0603767967224,58.824615039825446 L164.0603767967224,58.824615039825446 L164.0603767967224,58.824615039825446 Q163.6803767967224,60.36461503982544 162.3403767967224,61.384615039825434 L162.3403767967224,61.384615039825434 L162.3403767967224,61.384615039825434 Q159.52037679672242,63.56461503982544 156.48037679672242,63.56461503982544 L156.48037679672242,63.56461503982544 L156.48037679672242,63.56461503982544 Q153.4403767967224,63.56461503982544 151.6503767967224,62.47461503982544 L151.6503767967224,62.47461503982544 L151.6503767967224,62.47461503982544 Q149.86037679672242,61.384615039825434 149.3403767967224,59.59461503982544 zM170.46037679672241,55.884615039825434 L170.46037679672241,55.884615039825434 L170.46037679672241,55.884615039825434 Q170.46037679672241,54.154615039825444 171.36037679672242,49.804615039825435 L171.36037679672242,49.804615039825435 L174.7503767967224,32.524615039825434 L170.98037679672242,32.524615039825434 L171.23037679672242,30.604615039825433 L171.23037679672242,30.604615039825433 Q178.9103767967224,28.30461503982545 186.3403767967224,22.664615039825442 L186.3403767967224,22.664615039825442 L189.4103767967224,22.664615039825442 L187.8703767967224,29.64461503982544 L192.86037679672242,29.64461503982544 L192.2903767967224,32.524615039825434 L187.36037679672242,32.524615039825434 L184.1003767967224,49.804615039825435 L184.1003767967224,49.804615039825435 Q183.26037679672243,53.774615039825434 183.26037679672243,55.11461503982544 L183.26037679672243,55.11461503982544 L183.26037679672243,55.11461503982544 Q183.26037679672243,58.184615039825445 185.95037679672242,58.824615039825446 L185.95037679672242,58.824615039825446 L185.95037679672242,58.824615039825446 Q185.3103767967224,61.00461503982544 183.01037679672243,62.28461503982544 L183.01037679672243,62.28461503982544 L183.01037679672243,62.28461503982544 Q180.70037679672242,63.56461503982544 177.4403767967224,63.56461503982544 L177.4403767967224,63.56461503982544 L177.4403767967224,63.56461503982544 Q174.1803767967224,63.56461503982544 172.3203767967224,61.51461503982544 L172.3203767967224,61.51461503982544 L172.3203767967224,61.51461503982544 Q170.46037679672241,59.464615039825446 170.46037679672241,55.884615039825434 zM191.39037679672242,58.50461503982544 L191.39037679672242,58.50461503982544 L191.39037679672242,58.50461503982544 Q191.39037679672242,56.074615039825446 193.2803767967224,54.73461503982544 L193.2803767967224,54.73461503982544 L193.2803767967224,54.73461503982544 Q195.17037679672242,53.384615039825434 197.86037679672242,53.384615039825434 L197.86037679672242,53.384615039825434 L197.86037679672242,53.384615039825434 Q200.5403767967224,53.384615039825434 202.1803767967224,54.73461503982544 L202.1803767967224,54.73461503982544 L202.1803767967224,54.73461503982544 Q203.8103767967224,56.074615039825446 203.8103767967224,58.50461503982544 L203.8103767967224,58.50461503982544 L203.8103767967224,58.50461503982544 Q203.8103767967224,60.944615039825436 201.98037679672242,62.25461503982544 L201.98037679672242,62.25461503982544 L201.98037679672242,62.25461503982544 Q200.1603767967224,63.56461503982544 197.4703767967224,63.56461503982544 L197.4703767967224,63.56461503982544 L197.4703767967224,63.56461503982544 Q194.7803767967224,63.56461503982544 193.0903767967224,62.25461503982544 L193.0903767967224,62.25461503982544 L193.0903767967224,62.25461503982544 Q191.39037679672242,60.944615039825436 191.39037679672242,58.50461503982544 zM196.64037679672242,33.48461503982544 L196.64037679672242,33.48461503982544 L196.64037679672242,33.48461503982544 Q196.64037679672242,31.054615039825435 198.5303767967224,29.70461503982544 L198.5303767967224,29.70461503982544 L198.5303767967224,29.70461503982544 Q200.42037679672242,28.364615039825438 203.1003767967224,28.364615039825438 L203.1003767967224,28.364615039825438 L203.1003767967224,28.364615039825438 Q205.7903767967224,28.364615039825438 207.4203767967224,29.70461503982544 L207.4203767967224,29.70461503982544 L207.4203767967224,29.70461503982544 Q209.06037679672238,31.054615039825435 209.06037679672238,33.48461503982544 L209.06037679672238,33.48461503982544 L209.06037679672238,33.48461503982544 Q209.06037679672238,35.914615039825435 207.23037679672245,37.22461503982544 L207.23037679672245,37.22461503982544 L207.23037679672245,37.22461503982544 Q205.4103767967224,38.544615039825445 202.7203767967224,38.544615039825445 L202.7203767967224,38.544615039825445 L202.7203767967224,38.544615039825445 Q200.0303767967224,38.544615039825445 198.3403767967224,37.22461503982544 L198.3403767967224,37.22461503982544 L198.3403767967224,37.22461503982544 Q196.64037679672242,35.914615039825435 196.64037679672242,33.48461503982544 zM210.9103767967224,59.214615039825446 L210.9103767967224,59.214615039825446 L218.8503767967224,17.484615039825442 L231.8403767967224,16.20461503982544 L229.86037679672245,25.994615039825447 L229.86037679672245,25.994615039825447 Q229.1503767967224,29.00461503982544 228.26037679672243,31.114615039825438 L228.26037679672243,31.114615039825438 L228.26037679672243,31.114615039825438 Q229.6603767967224,29.32461503982543 232.74037679672244,28.624615039825443 L232.74037679672244,28.624615039825443 L232.74037679672244,28.624615039825443 Q233.63037679672243,28.364615039825438 234.7203767967224,28.364615039825438 L234.7203767967224,28.364615039825438 L234.7203767967224,28.364615039825438 Q240.6703767967224,28.364615039825438 243.94037679672238,31.984615039825442 L243.94037679672238,31.984615039825442 L243.94037679672238,31.984615039825442 Q247.20037679672242,35.59461503982544 247.20037679672242,42.57461503982543 L247.20037679672242,42.57461503982543 L247.20037679672242,42.57461503982543 Q247.20037679672242,51.664615039825435 242.02037679672242,57.35461503982543 L242.02037679672242,57.35461503982543 L242.02037679672242,57.35461503982543 Q236.45037679672242,63.56461503982544 226.3403767967224,63.56461503982544 L226.3403767967224,63.56461503982544 L226.3403767967224,63.56461503982544 Q219.36037679672245,63.56461503982544 214.11037679672245,61.26461503982544 L214.11037679672245,61.26461503982544 L214.11037679672245,61.26461503982544 Q212.26037679672243,60.42461503982544 210.9103767967224,59.214615039825446 zM227.1703767967224,39.884615039825434 L223.7803767967224,58.634615039825434 L223.7803767967224,58.634615039825434 Q225.12037679672244,59.78461503982544 226.7803767967224,59.78461503982544 L226.7803767967224,59.78461503982544 L226.7803767967224,59.78461503982544 Q228.45037679672242,59.78461503982544 229.4103767967224,59.14461503982544 L229.4103767967224,59.14461503982544 L229.4103767967224,59.14461503982544 Q230.37037679672244,58.50461503982544 231.07037679672237,57.22461503982544 L231.07037679672237,57.22461503982544 L231.07037679672237,57.22461503982544 Q232.99037679672244,53.774615039825434 234.5303767967224,43.214615039825446 L234.5303767967224,43.214615039825446 L234.5303767967224,43.214615039825446 Q234.98037679672245,40.20461503982544 234.98037679672245,37.194615039825436 L234.98037679672245,37.194615039825436 L234.98037679672245,37.194615039825436 Q234.98037679672245,34.184615039825445 234.3003767967224,33.22461503982544 L234.3003767967224,33.22461503982544 L234.3003767967224,33.22461503982544 Q233.63037679672243,32.26461503982544 232.3503767967224,32.26461503982544 L232.3503767967224,32.26461503982544 L232.3503767967224,32.26461503982544 Q228.45037679672242,32.26461503982544 227.1703767967224,39.884615039825434 L227.1703767967224,39.884615039825434 zM266.3403767967224,58.76461503982544 L266.3403767967224,58.76461503982544 L266.3403767967224,58.76461503982544 Q264.3503767967224,63.56461503982544 258.0203767967224,63.56461503982544 L258.0203767967224,63.56461503982544 L258.0203767967224,63.56461503982544 Q254.82037679672237,63.56461503982544 252.77037679672242,61.324615039825446 L252.77037679672242,61.324615039825446 L252.77037679672242,61.324615039825446 Q251.1003767967224,59.464615039825446 251.1003767967224,57.35461503982543 L251.1003767967224,57.35461503982543 L251.1003767967224,57.35461503982543 Q251.1003767967224,52.554615039825435 253.3403767967224,42.06461503982544 L253.3403767967224,42.06461503982544 L258.0203767967224,17.484615039825442 L271.0103767967224,16.20461503982544 L264.8003767967224,48.58461503982544 L264.8003767967224,48.58461503982544 Q263.7103767967224,53.32461503982543 263.7103767967224,54.98461503982544 L263.7103767967224,54.98461503982544 L263.7103767967224,54.98461503982544 Q263.7103767967224,58.634615039825434 266.3403767967224,58.76461503982544 zM274.56037679672244,60.36461503982544 L274.56037679672244,60.36461503982544 L274.56037679672244,60.36461503982544 Q273.06037679672244,58.70461503982544 272.38037679672243,56.074615039825446 L272.38037679672243,56.074615039825446 L272.38037679672243,56.074615039825446 Q271.7103767967224,53.45461503982544 271.7103767967224,49.164615039825435 L271.7103767967224,49.164615039825435 L271.7103767967224,49.164615039825435 Q271.7103767967224,44.87461503982544 273.1803767967224,40.97461503982544 L273.1803767967224,40.97461503982544 L273.1803767967224,40.97461503982544 Q274.6603767967224,37.06461503982544 277.3403767967224,34.25461503982544 L277.3403767967224,34.25461503982544 L277.3403767967224,34.25461503982544 Q282.8503767967224,28.364615039825438 291.94037679672243,28.364615039825438 L291.94037679672243,28.364615039825438 L291.94037679672243,28.364615039825438 Q295.2003767967224,28.364615039825438 297.5703767967224,29.45461503982544 L297.5703767967224,29.45461503982544 L308.5103767967224,28.364615039825438 L303.7803767967224,53.32461503982543 L303.7803767967224,53.32461503982543 Q303.5803767967224,54.09461503982544 303.5803767967224,55.50461503982544 L303.5803767967224,55.50461503982544 L303.5803767967224,55.50461503982544 Q303.5803767967224,56.904615039825444 304.4503767967224,57.804615039825435 L304.4503767967224,57.804615039825435 L304.4503767967224,57.804615039825435 Q305.31037679672244,58.70461503982544 306.5903767967224,58.824615039825446 L306.5903767967224,58.824615039825446 L306.5903767967224,58.824615039825446 Q305.9503767967224,61.00461503982544 303.62037679672244,62.28461503982544 L303.62037679672244,62.28461503982544 L303.62037679672244,62.28461503982544 Q301.2803767967224,63.56461503982544 298.6603767967224,63.56461503982544 L298.6603767967224,63.56461503982544 L298.6603767967224,63.56461503982544 Q296.0303767967224,63.56461503982544 294.2703767967224,62.574615039825446 L294.2703767967224,62.574615039825446 L294.2703767967224,62.574615039825446 Q292.5103767967224,61.58461503982544 292.00037679672243,59.914615039825435 L292.00037679672243,59.914615039825435 L292.00037679672243,59.914615039825435 Q290.9803767967224,61.51461503982544 288.8003767967224,62.544615039825445 L288.8003767967224,62.544615039825445 L288.8003767967224,62.544615039825445 Q286.62037679672244,63.56461503982544 283.7103767967224,63.56461503982544 L283.7103767967224,63.56461503982544 L283.7103767967224,63.56461503982544 Q280.8003767967224,63.56461503982544 278.4303767967224,62.794615039825445 L278.4303767967224,62.794615039825445 L278.4303767967224,62.794615039825445 Q276.06037679672244,62.024615039825434 274.56037679672244,60.36461503982544 zM288.06037679672244,34.384615039825434 L288.06037679672244,34.384615039825434 L288.06037679672244,34.384615039825434 Q287.3303767967224,35.53461503982544 286.69037679672243,37.48461503982544 L286.69037679672243,37.48461503982544 L286.69037679672243,37.48461503982544 Q286.0503767967224,39.434615039825445 284.9903767967224,44.654615039825444 L284.9903767967224,44.654615039825444 L284.9903767967224,44.654615039825444 Q283.94037679672243,49.86461503982544 283.94037679672243,53.58461503982544 L283.94037679672243,53.58461503982544 L283.94037679672243,53.58461503982544 Q283.94037679672243,57.294615039825445 284.5103767967224,58.384615039825434 L284.5103767967224,58.384615039825434 L284.5103767967224,58.384615039825434 Q285.0903767967224,59.464615039825446 286.1103767967224,59.464615039825446 L286.1103767967224,59.464615039825446 L286.1103767967224,59.464615039825446 Q288.1603767967224,59.464615039825446 289.6603767967224,57.51461503982544 L289.6603767967224,57.51461503982544 L289.6603767967224,57.51461503982544 Q291.1703767967224,55.56461503982544 291.7403767967224,52.10461503982543 L291.7403767967224,52.10461503982543 L295.1403767967224,33.35461503982543 L295.1403767967224,33.35461503982543 Q293.7903767967224,32.20461503982544 292.2203767967224,32.20461503982544 L292.2203767967224,32.20461503982544 L292.2203767967224,32.20461503982544 Q290.6603767967224,32.20461503982544 289.7303767967224,32.714615039825446 L289.7303767967224,32.714615039825446 L289.7303767967224,32.714615039825446 Q288.8003767967224,33.22461503982544 288.06037679672244,34.384615039825434 zM339.0403767967224,63.56461503982544 L339.0403767967224,63.56461503982544 L339.0403767967224,63.56461503982544 Q331.3003767967224,63.56461503982544 331.3003767967224,57.544615039825445 L331.3003767967224,57.544615039825445 L331.3003767967224,57.544615039825445 Q331.3603767967224,55.884615039825434 331.87037679672244,53.06461503982544 L331.87037679672244,53.06461503982544 L333.0203767967224,47.184615039825445 L333.0203767967224,47.184615039825445 Q334.75037679672243,38.86461503982544 334.75037679672243,37.00461503982544 L334.75037679672243,37.00461503982544 L334.75037679672243,37.00461503982544 Q334.75037679672243,33.294615039825445 332.5803767967224,33.294615039825445 L332.5803767967224,33.294615039825445 L332.5803767967224,33.294615039825445 Q328.9303767967224,33.294615039825445 327.0103767967224,42.82461503982543 L327.0103767967224,42.82461503982543 L323.2303767967224,62.28461503982544 L310.37037679672244,63.56461503982544 L317.0203767967224,29.584615039825437 L327.5203767967224,28.364615039825438 L326.50037679672243,34.634615039825434 L326.50037679672243,34.634615039825434 Q329.50037679672243,28.364615039825438 338.7203767967224,28.364615039825438 L338.7203767967224,28.364615039825438 L338.7203767967224,28.364615039825438 Q343.2003767967224,28.364615039825438 345.0903767967224,30.25461503982544 L345.0903767967224,30.25461503982544 L345.0903767967224,30.25461503982544 Q346.9803767967224,32.14461503982544 346.9803767967224,36.36461503982544 L346.9803767967224,36.36461503982544 L346.9803767967224,36.36461503982544 Q346.9803767967224,40.33461503982544 344.9303767967224,49.61461503982544 L344.9303767967224,49.61461503982544 L344.9303767967224,49.61461503982544 Q343.9703767967224,53.774615039825434 343.9703767967224,55.34461503982544 L343.9703767967224,55.34461503982544 L343.9703767967224,55.34461503982544 Q343.9703767967224,56.904615039825444 344.8303767967224,57.804615039825435 L344.8303767967224,57.804615039825435 L344.8303767967224,57.804615039825435 Q345.7003767967224,58.70461503982544 346.9803767967224,58.824615039825446 L346.9803767967224,58.824615039825446 L346.9803767967224,58.824615039825446 Q346.3403767967224,61.00461503982544 344.13037679672243,62.28461503982544 L344.13037679672243,62.28461503982544 L344.13037679672243,62.28461503982544 Q341.9203767967224,63.56461503982544 339.0403767967224,63.56461503982544 zM368.6103767967224,31.944615039825436 L368.6103767967224,31.944615039825436 L368.6103767967224,31.944615039825436 Q372.06037679672244,28.364615039825438 379.3603767967224,28.364615039825438 L379.3603767967224,28.364615039825438 L379.3603767967224,28.364615039825438 Q383.3903767967224,28.364615039825438 385.6003767967224,30.50461503982544 L385.6003767967224,30.50461503982544 L385.6003767967224,30.50461503982544 Q387.81037679672244,32.654615039825444 387.81037679672244,36.58461503982544 L387.81037679672244,36.58461503982544 L387.81037679672244,36.58461503982544 Q387.81037679672244,40.524615039825434 385.6003767967224,43.304615039825435 L385.6003767967224,43.304615039825435 L385.6003767967224,43.304615039825435 Q383.3903767967224,46.09461503982544 379.3003767967224,47.24461503982545 L379.3003767967224,47.24461503982545 L379.3003767967224,47.24461503982545 Q379.62037679672244,48.524615039825434 380.06037679672244,49.86461503982544 L380.06037679672244,49.86461503982544 L380.9603767967224,52.42461503982544 L380.9603767967224,52.42461503982544 Q382.1803767967224,55.694615039825436 383.1403767967224,56.84461503982544 L383.1403767967224,56.84461503982544 L383.1403767967224,56.84461503982544 Q384.1003767967224,57.99461503982543 385.38037679672243,58.384615039825434 L385.38037679672243,58.384615039825434 L385.38037679672243,58.384615039825434 Q384.6703767967224,61.00461503982544 382.1103767967224,62.414615039825435 L382.1103767967224,62.414615039825435 L382.1103767967224,62.414615039825435 Q380.06037679672244,63.56461503982544 377.25037679672243,63.56461503982544 L377.25037679672243,63.56461503982544 L377.25037679672243,63.56461503982544 Q368.9903767967224,63.56461503982544 367.9003767967224,50.82461503982543 L367.9003767967224,50.82461503982543 L367.9003767967224,50.82461503982543 Q367.7103767967224,49.03461503982544 367.7103767967224,47.24461503982545 L367.7103767967224,47.24461503982545 L367.7103767967224,47.24461503982545 Q370.9103767967224,46.34461503982544 373.1503767967224,43.34461503982544 L373.1503767967224,43.34461503982544 L373.1503767967224,43.34461503982544 Q375.3903767967224,40.33461503982544 375.3903767967224,36.81461503982544 L375.3903767967224,36.81461503982544 L375.3903767967224,36.81461503982544 Q375.3903767967224,33.294615039825445 372.9003767967224,33.294615039825445 L372.9003767967224,33.294615039825445 L372.9003767967224,33.294615039825445 Q371.1003767967224,33.294615039825445 369.7003767967224,35.274615039825434 L369.7003767967224,35.274615039825434 L369.7003767967224,35.274615039825434 Q368.2903767967224,37.26461503982544 367.6503767967224,40.654615039825444 L367.6503767967224,40.654615039825444 L363.4203767967224,62.28461503982544 L350.50037679672243,63.56461503982544 L359.4603767967224,17.484615039825442 L372.3203767967224,16.20461503982544 L370.8503767967224,23.82461503982544 L370.8503767967224,23.82461503982544 Q369.8903767967224,29.194615039825436 368.6103767967224,31.944615039825436 z" fill="#000" id="svg_3"/> </g> </g></g></svg>