<svg width="20px" height="24px" viewBox="0 0 20 24" version="1.1" xmlns="http://www.w3.org/2000/svg" xmlns:xlink="http://www.w3.org/1999/xlink"><!-- Generator: Sketch 51.2 (57519) - http://www.bohemiancoding.com/sketch --><desc>Created with Sketch.</desc><defs></defs><g id="Page-1" stroke="none" stroke-width="1" fill="none" fill-rule="evenodd"><g id="Desktop" transform="translate(-765.000000, -696.000000)" fill-rule="nonzero"><g id="stack3" transform="translate(765.000000, 696.000000)"><path d="M3.33333333,0 L16.6666667,0 C18.5076158,0 20,1.49238417 20,3.33333333 L0,3.33333333 C0,1.5 1.5,0 3.33333333,0 Z" id="Shape" fill="#8FD8F7"></path><path d="M0,15 L20,15 C20,16.8409492 18.5076158,18.3333333 16.6666667,18.3333333 L3.33333333,18.3333333 C1.49238417,18.3333333 2.2545125e-16,16.8409492 0,15 Z M11.6666667,18.3333333 L11.6666667,23.3333333 L16.6666667,18.3333333 L11.6666667,18.3333333 Z" id="Shape" fill="#155397"></path><polygon id="Shape" fill="#46A2D9" points="0 5 20 5 20 8.33333333 0 8.33333333"></polygon><polygon id="Shape" fill="#2D6DB5" points="0 10 20 10 20 13.3333333 0 13.3333333"></polygon></g></g></g></svg>
